<svg version="1.1" id="레이어_1" xmlns="http://www.w3.org/2000/svg" xmlns:xlink="http://www.w3.org/1999/xlink" x="0px"
	 y="0px" width="132.055px" height="49.885px" viewBox="-2.027 0 132.055 49.885" enable-background="new -2.027 0 132.055 49.885"
	 xml:space="preserve">
		<g>
			<path fill="#3C3C3C" d="M17.11,41.606v1.529H2.382v-1.529H17.11z M15.67,38.437c-2.646-0.539-4.934-2.232-5.996-4.465
				c-1.062,2.232-3.349,3.926-5.995,4.465l-0.792-1.529c3.204-0.596,5.815-3.098,5.815-5.672v-1.225h1.963v1.225
				c0,2.592,2.61,5.096,5.815,5.672L15.67,38.437z"/>
			<path fill="#3C3C3C" d="M22.996,30.55h7.616v10.623h-7.616V30.55z M24.832,39.696h3.943v-7.67h-3.943V39.696z M37.563,36.853
				h-2.539v8.391h-1.854V28.966h1.854v6.355h2.539V36.853z"/>
			<path fill="#3C3C3C" d="M56.876,41.714v1.512H42.129v-1.512H56.876z M55.219,39.05H43.947v-8.77h11.146v1.494h-9.255v2.09h8.896
				v1.457h-8.896v2.232h9.381V39.05z"/>
			<path fill="#3C3C3C" d="M71.255,32.298h-9.597v-1.477h3.872v-1.873h1.854v1.873h3.871V32.298z M66.448,39.212
				c-2.322,0-3.943-1.225-3.943-3.08c0-1.836,1.621-3.078,3.943-3.078c2.34,0,3.943,1.242,3.943,3.078
				C70.392,37.987,68.788,39.212,66.448,39.212z M65.907,43.405h9.076v1.514H64.036V40.22h1.871V43.405z M66.448,37.771
				c1.297,0,2.178-0.611,2.178-1.639c0-1.025-0.881-1.639-2.178-1.639c-1.279,0-2.16,0.613-2.16,1.639
				C64.288,37.159,65.169,37.771,66.448,37.771z M76.64,34.151v1.531h-2.305v5.473h-1.855V28.966h1.855v5.186H76.64z"/>
			<path fill="#3C3C3C" d="M95.356,36.815c-2.449,0-4.25-1.512-4.25-3.654s1.801-3.674,4.25-3.674c2.467,0,4.285,1.531,4.285,3.674
				S97.823,36.815,95.356,36.815z M95.356,35.304c1.422,0,2.484-0.846,2.484-2.143s-1.063-2.143-2.484-2.143
				c-1.404,0-2.449,0.846-2.449,2.143S93.952,35.304,95.356,35.304z M104.683,43.567v1.459H93.573v-4.268h8.787v-1.35h-8.822V37.95
				h10.658v4.178h-8.805v1.439H104.683z M104.196,37.212h-1.854v-8.264h1.854V37.212z"/>
			<path fill="#3C3C3C" d="M119.101,37.86c-1.746-0.631-3.043-1.873-3.727-3.402c-0.721,1.764-2.053,3.168-3.926,3.854l-0.99-1.477
				c2.557-0.883,3.943-3.098,3.943-5.438v-1.604h1.873v1.746c0,2.09,1.385,4.07,3.799,4.861L119.101,37.86z M123.493,42.163
				c0,1.928-2.053,3.063-5.42,3.063c-3.348,0-5.418-1.135-5.418-3.063c0-1.908,2.07-3.043,5.418-3.043
				C121.44,39.12,123.493,40.255,123.493,42.163z M121.657,42.163c0-1.008-1.314-1.584-3.584-1.584c-2.268,0-3.582,0.576-3.582,1.584
				c0,1.045,1.314,1.604,3.582,1.604C120.343,43.767,121.657,43.208,121.657,42.163z M125.618,32.981v1.529h-2.305v4.215h-1.854
				v-9.777h1.854v4.033H125.618z"/>
		</g>
		<g>
			<path fill="#F36628" d="M-2.027,15.44l2.041-0.945c0.193,0.702,0.548,1.237,1.063,1.606c0.516,0.369,1.175,0.553,1.977,0.553
				c0.759,0,1.362-0.211,1.81-0.634c0.448-0.422,0.672-0.988,0.672-1.697c0-0.924-0.767-1.747-2.299-2.471
				c-0.215-0.107-0.38-0.186-0.494-0.236c-1.733-0.845-2.888-1.609-3.465-2.293c-0.576-0.684-0.864-1.52-0.864-2.508
				c0-1.282,0.435-2.32,1.306-3.115c0.869-0.795,2.01-1.192,3.421-1.192c1.16,0,2.131,0.224,2.911,0.671
				c0.78,0.448,1.321,1.09,1.622,1.928L5.675,6.137C5.359,5.643,5.014,5.282,4.639,5.052C4.262,4.823,3.831,4.708,3.344,4.708
				c-0.688,0-1.233,0.179-1.639,0.537C1.301,5.604,1.099,6.083,1.099,6.685c0,0.945,0.888,1.826,2.664,2.643
				c0.136,0.064,0.243,0.115,0.322,0.15c1.554,0.716,2.621,1.417,3.201,2.1c0.58,0.684,0.87,1.538,0.87,2.562
				c0,1.49-0.469,2.673-1.407,3.55c-0.938,0.877-2.206,1.316-3.803,1.316c-1.339,0-2.437-0.308-3.292-0.924
				C-1.202,17.467-1.763,16.586-2.027,15.44z"/>
			<path fill="#F36628" d="M23.817,10.821c-0.028-0.122-0.075-0.458-0.14-1.01c-0.058-0.458-0.107-0.838-0.15-1.139
				c-0.064,0.358-0.155,0.716-0.274,1.074c-0.117,0.358-0.267,0.724-0.445,1.096l-4.114,8.379l-4.114-8.551
				c-0.172-0.351-0.32-0.691-0.445-1.021c-0.126-0.329-0.235-0.655-0.328-0.978c-0.007,0.33-0.034,0.675-0.08,1.037
				c-0.047,0.362-0.117,0.74-0.21,1.133l-1.687,7.745H9.477l3.717-16.393l4.641,9.926c0.071,0.158,0.181,0.419,0.327,0.784
				c0.147,0.365,0.324,0.816,0.532,1.354c0.15-0.451,0.387-1.024,0.709-1.719c0.086-0.186,0.15-0.329,0.193-0.43l4.533-9.915
				l3.803,16.393h-2.374L23.817,10.821z"/>
			<path fill="#F36628" d="M41.484,18.587l-1.783-4.05h-6.23l-1.826,4.05h-2.686l7.616-16.35l7.605,16.35H41.484z M34.416,12.411
				h4.383l-1.611-3.588c-0.093-0.229-0.189-0.492-0.29-0.79c-0.101-0.297-0.2-0.628-0.301-0.994c-0.086,0.344-0.178,0.665-0.273,0.961
				c-0.098,0.297-0.195,0.571-0.296,0.822L34.416,12.411z"/>
			<path fill="#F36628" d="M48.362,11.551v7.036h-2.396V2.861h3.566c1.046,0,1.856,0.068,2.434,0.204
				c0.576,0.136,1.068,0.362,1.477,0.677c0.487,0.38,0.863,0.87,1.128,1.472s0.397,1.261,0.397,1.977c0,1.261-0.305,2.247-0.913,2.959
				c-0.608,0.713-1.508,1.141-2.696,1.284l5.414,7.154h-2.89l-5.231-7.036H48.362z M48.523,9.564h0.462
				c1.354,0,2.252-0.157,2.696-0.473c0.444-0.315,0.666-0.874,0.666-1.676c0-0.866-0.238-1.477-0.715-1.832
				c-0.476-0.354-1.358-0.532-2.647-0.532h-0.462V9.564z"/>
			<path fill="#F36628" d="M63.428,5.031v13.557h-2.557V5.031h-4.178v-2.17h10.893v2.17H63.428z"/>
			<path fill="#F36628" d="M76.18,18.587V2.861h2.557v13.438h5.715v2.288H76.18z"/>
			<path fill="#F36628" d="M88.209,18.587V11.39l-5.295-8.529H85.6L88.896,8.2c0.08,0.136,0.178,0.315,0.297,0.537
				c0.117,0.222,0.236,0.462,0.359,0.72c0.1-0.25,0.205-0.487,0.316-0.709c0.111-0.222,0.227-0.426,0.35-0.612l3.383-5.274h2.557
				l-5.414,8.529v7.197H88.209z"/>
			<path fill="#F36628" d="M98.063,18.587V2.238l9.99,9.614c0.271,0.272,0.547,0.563,0.826,0.87c0.279,0.308,0.574,0.655,0.881,1.042
				V2.861h2.363V19.2L101.93,9.414c-0.273-0.265-0.535-0.544-0.789-0.838c-0.256-0.293-0.496-0.602-0.727-0.924v10.936H98.063z"/>
			<path fill="#F36628" d="M115.967,18.587V2.238l9.99,9.614c0.271,0.272,0.547,0.563,0.826,0.87c0.279,0.308,0.574,0.655,0.881,1.042
				V2.861h2.363V19.2l-10.193-9.786c-0.273-0.265-0.535-0.544-0.789-0.838c-0.256-0.293-0.496-0.602-0.727-0.924v10.936H115.967z"/>
		</g>
</svg>