<svg xmlns="http://www.w3.org/2000/svg" width="16" height="16.005" viewBox="0 0 16 16.005">
  <g id="그룹_1016" data-name="그룹 1016" transform="translate(-536.859 -364.844)">
    <path id="패스_520" data-name="패스 520" d="M553.236,382.437a1.2,1.2,0,0,1-.848-.351l-7.271-7.271a1.2,1.2,0,1,1,1.7-1.7l7.271,7.271a1.2,1.2,0,0,1-.848,2.047Z" transform="translate(-1.576 -1.588)" fill="#f36628"/>
    <g id="그룹_1016-2" data-name="그룹 1016" transform="translate(536.859 364.844)">
      <path id="패스_521" data-name="패스 521" d="M544.059,364.844a7.2,7.2,0,1,0,7.2,7.2,7.2,7.2,0,0,0-7.2-7.2Z" transform="translate(-536.859 -364.844)" fill="#fff"/>
      <path id="패스_522" data-name="패스 522" d="M544.059,367.243a4.8,4.8,0,1,1-4.8,4.8,4.8,4.8,0,0,1,4.8-4.8m0-2.4a7.2,7.2,0,1,0,7.2,7.2,7.2,7.2,0,0,0-7.2-7.2Z" transform="translate(-536.859 -364.844)" fill="#f36628"/>
    </g>
  </g>
</svg>
