<svg xmlns="http://www.w3.org/2000/svg" width="192" height="99" viewBox="0 0 192 99">
  <g id="Group_1713" data-name="Group 1713" transform="translate(-1880 1532.501)">
    <path id="Path_1063" data-name="Path 1063" d="M2038.07-1433.568a1,1,0,0,1-1-1v-7a1,1,0,0,1,1-1,1,1,0,0,1,1,1v7A1,1,0,0,1,2038.07-1433.568Z" fill="#f36628"/>
    <path id="Path_1064" data-name="Path 1064" d="M2066-1433.5a1,1,0,0,1-1-1v-7a1,1,0,0,1,1-1,1,1,0,0,1,1,1v7A1,1,0,0,1,2066-1433.5Z" fill="#f36628"/>
    <path id="Path_1065" data-name="Path 1065" d="M2038.07-1440.568a6.008,6.008,0,0,1-6-6,6.007,6.007,0,0,1,6-6,6.006,6.006,0,0,1,6,6A6.007,6.007,0,0,1,2038.07-1440.568Zm0-10a4,4,0,0,0-4,4,4,4,0,0,0,4,4,4,4,0,0,0,4-4A4,4,0,0,0,2038.07-1450.567Z" fill="#f36628"/>
    <path id="Path_1066" data-name="Path 1066" d="M2038.07-1450.567a6.009,6.009,0,0,1-6-6,6.007,6.007,0,0,1,6-6,6.006,6.006,0,0,1,6,6A6.008,6.008,0,0,1,2038.07-1450.567Zm0-10a4,4,0,0,0-4,4,4.006,4.006,0,0,0,4,4,4.005,4.005,0,0,0,4-4A4,4,0,0,0,2038.07-1460.568Z" fill="#f36628"/>
    <path id="Path_1067" data-name="Path 1067" d="M2066-1440.5a6.006,6.006,0,0,1-6-6,6.006,6.006,0,0,1,6-6,6.006,6.006,0,0,1,6,6A6.006,6.006,0,0,1,2066-1440.5Zm0-10a4,4,0,0,0-4,4,4,4,0,0,0,4,4,4,4,0,0,0,4-4A4,4,0,0,0,2066-1450.5Z" fill="#f36628"/>
    <path id="Path_1068" data-name="Path 1068" d="M2012-1433.5a1,1,0,0,1-1-1v-40a1,1,0,0,1,1-1h22a1,1,0,0,1,1,1v7a1,1,0,0,1-1,1,1,1,0,0,1-1-1v-6h-20v39A1,1,0,0,1,2012-1433.5Z" fill="#f36628"/>
    <path id="Path_1069" data-name="Path 1069" d="M2031-1479.5a1,1,0,0,1-1-1v-11a1,1,0,0,1,1-1,1,1,0,0,1,1,1v11A1,1,0,0,1,2031-1479.5Z" fill="#f36628"/>
    <path id="Path_1070" data-name="Path 1070" d="M2031-1490.5a1,1,0,0,1-1-1,9.914,9.914,0,0,0-9.8-10,9.7,9.7,0,0,0-8.342,4.75,1,1,0,0,1-1.373.338,1,1,0,0,1-.337-1.373,11.688,11.688,0,0,1,10.052-5.715,11.916,11.916,0,0,1,11.8,12A1,1,0,0,1,2031-1490.5Z" fill="#f36628"/>
    <path id="Path_1071" data-name="Path 1071" d="M2005-1433.5a1,1,0,0,1-1-1v-71.586l-10-10-10,10v71.586a1,1,0,0,1-1,1,1,1,0,0,1-1-1v-72a1,1,0,0,1,.293-.707l11-11a1,1,0,0,1,1.414,0l11,11a1,1,0,0,1,.293.707v72A1,1,0,0,1,2005-1433.5Z" fill="#f36628"/>
    <path id="Path_1072" data-name="Path 1072" d="M2020-1501.5a1,1,0,0,1-1-1v-6a1,1,0,0,1,1-1,1,1,0,0,1,1,1v6A1,1,0,0,1,2020-1501.5Z" fill="#f36628"/>
    <path id="Path_1073" data-name="Path 1073" d="M2024-1486.5a1,1,0,0,1-1-1v-3a1,1,0,0,1,1-1,1,1,0,0,1,1,1v3A1,1,0,0,1,2024-1486.5Z" fill="#f36628"/>
    <path id="Path_1074" data-name="Path 1074" d="M2017-1486.5a1,1,0,0,1-1-1v-3a1,1,0,0,1,1-1,1,1,0,0,1,1,1v3A1,1,0,0,1,2017-1486.5Z" fill="#f36628"/>
    <path id="Path_1075" data-name="Path 1075" d="M2027-1463.5a1,1,0,0,1-1-1v-3a1,1,0,0,1,1-1,1,1,0,0,1,1,1v3A1,1,0,0,1,2027-1463.5Z" fill="#f36628"/>
    <path id="Path_1076" data-name="Path 1076" d="M2019-1463.5a1,1,0,0,1-1-1v-3a1,1,0,0,1,1-1,1,1,0,0,1,1,1v3A1,1,0,0,1,2019-1463.5Z" fill="#f36628"/>
    <path id="Path_1077" data-name="Path 1077" d="M2064-1456.5a1,1,0,0,1-1-1v-9h-21a1,1,0,0,1-1-1,1,1,0,0,1,1-1h22a1,1,0,0,1,1,1v10A1,1,0,0,1,2064-1456.5Z" fill="#f36628"/>
    <path id="Path_1078" data-name="Path 1078" d="M2048-1455.5a1,1,0,0,1-1-1v-3a1,1,0,0,1,1-1,1,1,0,0,1,1,1v3A1,1,0,0,1,2048-1455.5Z" fill="#f36628"/>
    <path id="Path_1079" data-name="Path 1079" d="M2055-1449.5a1,1,0,0,1-1-1v-3a1,1,0,0,1,1-1,1,1,0,0,1,1,1v3A1,1,0,0,1,2055-1449.5Z" fill="#f36628"/>
    <path id="Path_1080" data-name="Path 1080" d="M1998-1496.5a1,1,0,0,1-1-1v-3a1,1,0,0,1,1-1,1,1,0,0,1,1,1v3A1,1,0,0,1,1998-1496.5Z" fill="#f36628"/>
    <path id="Path_1081" data-name="Path 1081" d="M1989-1485.5a1,1,0,0,1-1-1v-2.952a1,1,0,0,1,1-1,1,1,0,0,1,1,1v2.952A1,1,0,0,1,1989-1485.5Z" fill="#f36628"/>
    <path id="Path_1082" data-name="Path 1082" d="M2000-1478.5a1,1,0,0,1-1-1v-2.955a1,1,0,0,1,1-1,1,1,0,0,1,1,1v2.955A1,1,0,0,1,2000-1478.5Z" fill="#f36628"/>
    <path id="Path_1083" data-name="Path 1083" d="M1994-1465.5a1,1,0,0,1-1-1v-2.953a1,1,0,0,1,1-1,1,1,0,0,1,1,1v2.953A1,1,0,0,1,1994-1465.5Z" fill="#f36628"/>
    <path id="Path_1084" data-name="Path 1084" d="M1891.384-1440.5a6.148,6.148,0,0,1-6.142-6.141,6.147,6.147,0,0,1,6.142-6.138,6.145,6.145,0,0,1,6.136,6.138A6.146,6.146,0,0,1,1891.384-1440.5Zm0-10.279a4.145,4.145,0,0,0-4.142,4.138,4.146,4.146,0,0,0,4.142,4.141,4.143,4.143,0,0,0,4.136-4.141A4.142,4.142,0,0,0,1891.384-1450.78Z" fill="#f36628"/>
    <path id="Path_1085" data-name="Path 1085" d="M1891.384-1433.5a1,1,0,0,1-1-1v-7a1,1,0,0,1,1-1,1,1,0,0,1,1,1v7A1,1,0,0,1,1891.384-1433.5Z" fill="#f36628"/>
    <path id="Path_1086" data-name="Path 1086" d="M1975-1433.5a1,1,0,0,1-1-1v-86.656l-28,8.4v26.256a1,1,0,0,1-1,1,1,1,0,0,1-1-1v-27a1,1,0,0,1,.713-.958l30-9a1,1,0,0,1,.884.155,1,1,0,0,1,.4.8v88A1,1,0,0,1,1975-1433.5Z" fill="#f36628"/>
    <path id="Path_1087" data-name="Path 1087" d="M1952-1485.5a1,1,0,0,1-1-1v-23a1,1,0,0,1,1-1,1,1,0,0,1,1,1v23A1,1,0,0,1,1952-1485.5Z" fill="#f36628"/>
    <path id="Path_1088" data-name="Path 1088" d="M1960-1487.5a1,1,0,0,1-1-1v-24a1,1,0,0,1,1-1,1,1,0,0,1,1,1v24A1,1,0,0,1,1960-1487.5Z" fill="#f36628"/>
    <path id="Path_1089" data-name="Path 1089" d="M1968-1489.5a1,1,0,0,1-1-1v-24a1,1,0,0,1,1-1,1,1,0,0,1,1,1v24A1,1,0,0,1,1968-1489.5Z" fill="#f36628"/>
    <path id="Path_1090" data-name="Path 1090" d="M1886-1454.5a1,1,0,0,1-1-1v-5a1,1,0,0,1,1-1,1,1,0,0,1,1,1v5A1,1,0,0,1,1886-1454.5Z" fill="#f36628"/>
    <path id="Path_1091" data-name="Path 1091" d="M1894-1454.5a1,1,0,0,1-1-1v-5a1,1,0,0,1,1-1,1,1,0,0,1,1,1v5A1,1,0,0,1,1894-1454.5Z" fill="#f36628"/>
    <path id="Path_1092" data-name="Path 1092" d="M1902-1454.5a1,1,0,0,1-1-1v-5a1,1,0,0,1,1-1,1,1,0,0,1,1,1v5A1,1,0,0,1,1902-1454.5Z" fill="#f36628"/>
    <path id="Path_1093" data-name="Path 1093" d="M1910-1454.5a1,1,0,0,1-1-1v-5a1,1,0,0,1,1-1,1,1,0,0,1,1,1v5A1,1,0,0,1,1910-1454.5Z" fill="#f36628"/>
    <path id="Path_1094" data-name="Path 1094" d="M1918-1454.5a1,1,0,0,1-1-1v-5a1,1,0,0,1,1-1,1,1,0,0,1,1,1v5A1,1,0,0,1,1918-1454.5Z" fill="#f36628"/>
    <path id="Path_1095" data-name="Path 1095" d="M1921-1479.5a1,1,0,0,1-1-1v-3a1,1,0,0,1,1-1,1,1,0,0,1,1,1v3A1,1,0,0,1,1921-1479.5Z" fill="#f36628"/>
    <path id="Path_1096" data-name="Path 1096" d="M1915-1490.5a1,1,0,0,1-1-1v-3a1,1,0,0,1,1-1,1,1,0,0,1,1,1v3A1,1,0,0,1,1915-1490.5Z" fill="#f36628"/>
    <path id="Path_1097" data-name="Path 1097" d="M1917.5-1450.5h-18a1,1,0,0,1-1-1,1,1,0,0,1,1-1h18a1,1,0,0,1,1,1A1,1,0,0,1,1917.5-1450.5Z" fill="#f36628"/>
    <path id="Path_1098" data-name="Path 1098" d="M1923-1433.5a1,1,0,0,1-1-1v-29.174h-40v29.174a1,1,0,0,1-1,1,1,1,0,0,1-1-1v-30.174a1,1,0,0,1,1-1h42a1,1,0,0,1,1,1v30.174A1,1,0,0,1,1923-1433.5Z" fill="#f36628"/>
    <path id="Path_1099" data-name="Path 1099" d="M1907-1469.5a1,1,0,0,1-1-1v-26a1,1,0,0,1,.293-.707,41.712,41.712,0,0,1,29.688-12.293,1,1,0,0,1,1,1v23a1,1,0,0,1-1,1,1,1,0,0,1-1-1v-21.988A39.7,39.7,0,0,0,1908-1496.084v25.583A1,1,0,0,1,1907-1469.5Z" fill="#f36628"/>
    <path id="Path_1100" data-name="Path 1100" d="M1950.955-1433.5a1,1,0,0,1-1-1v-5.63a3.412,3.412,0,0,0-3.5-3.37,3.4,3.4,0,0,0-3.5,3.272v5.728a1,1,0,0,1-1,1,1,1,0,0,1-1-1v-5.63a5.415,5.415,0,0,1,5.5-5.37,5.4,5.4,0,0,1,5.5,5.272v5.728A1,1,0,0,1,1950.955-1433.5Z" fill="#f36628"/>
    <path id="Path_1101" data-name="Path 1101" d="M1955-1472.5h-16a1,1,0,0,1-1-1,1,1,0,0,1,1-1h16a1,1,0,0,1,1,1A1,1,0,0,1,1955-1472.5Z" fill="#f36628"/>
    <path id="Path_1102" data-name="Path 1102" d="M1955-1465.5h-16a1,1,0,0,1-1-1,1,1,0,0,1,1-1h16a1,1,0,0,1,1,1A1,1,0,0,1,1955-1465.5Z" fill="#f36628"/>
    <path id="Path_1103" data-name="Path 1103" d="M1955-1458.5h-16a1,1,0,0,1-1-1,1,1,0,0,1,1-1h16a1,1,0,0,1,1,1A1,1,0,0,1,1955-1458.5Z" fill="#f36628"/>
    <path id="Path_1104" data-name="Path 1104" d="M2058-1474.5a3,3,0,0,1-3-3,3,3,0,0,1,3-3,3,3,0,0,1,3,3A3,3,0,0,1,2058-1474.5Zm0-4a1,1,0,0,0-1,1,1,1,0,0,0,1,1,1,1,0,0,0,1-1A1,1,0,0,0,2058-1478.5Z" fill="#f36628"/>
    <path id="Path_1105" data-name="Path 1105" d="M1931.786-1520.26a3,3,0,0,1-3-3,3,3,0,0,1,3-3,3,3,0,0,1,3,3A3,3,0,0,1,1931.786-1520.26Zm0-4a1,1,0,0,0-1,1,1,1,0,0,0,1,1,1,1,0,0,0,1-1A1,1,0,0,0,1931.786-1524.259Z" fill="#f36628"/>
    <path id="Path_1106" data-name="Path 1106" d="M2012-1526.5a3,3,0,0,1-3-3,3,3,0,0,1,3-3,3,3,0,0,1,3,3A3,3,0,0,1,2012-1526.5Zm0-4a1,1,0,0,0-1,1,1,1,0,0,0,1,1,1,1,0,0,0,1-1A1,1,0,0,0,2012-1530.5Z" fill="#f36628"/>
    <path id="Path_1107" data-name="Path 1107" d="M1899-1497.5a3,3,0,0,1-3-3,3,3,0,0,1,3-3,3,3,0,0,1,3,3A3,3,0,0,1,1899-1497.5Zm0-4a1,1,0,0,0-1,1,1,1,0,0,0,1,1,1,1,0,0,0,1-1A1,1,0,0,0,1899-1501.5Z" fill="#f36628"/>
    <path id="Path_1108" data-name="Path 1108" d="M2045-1487.5a1,1,0,0,1-1-1v-4a1,1,0,0,1,1-1,1,1,0,0,1,1,1v4A1,1,0,0,1,2045-1487.5Z" fill="#f36628"/>
    <path id="Path_1109" data-name="Path 1109" d="M2047-1489.5h-4a1,1,0,0,1-1-1,1,1,0,0,1,1-1h4a1,1,0,0,1,1,1A1,1,0,0,1,2047-1489.5Z" fill="#f36628"/>
    <g id="Group_1712" data-name="Group 1712">
      <path id="Path_1110" data-name="Path 1110" d="M1888.5-1478h-5a1,1,0,0,1-1-1,1,1,0,0,1,1-1h5a1,1,0,0,1,1,1A1,1,0,0,1,1888.5-1478Z" fill="#f36628"/>
      <path id="Path_1111" data-name="Path 1111" d="M1886-1475.5a1,1,0,0,1-1-1v-5a1,1,0,0,1,1-1,1,1,0,0,1,1,1v5A1,1,0,0,1,1886-1475.5Z" fill="#f36628"/>
    </g>
    <path id="Path_1112" data-name="Path 1112" d="M1899-1469.5a1,1,0,0,1-1-1v-2a1,1,0,0,1,1-1,1,1,0,0,1,1,1v2A1,1,0,0,1,1899-1469.5Zm0-7a1,1,0,0,1-1-1v-2a1,1,0,0,1,1-1,1,1,0,0,1,1,1v2A1,1,0,0,1,1899-1476.5Zm0-7a1,1,0,0,1-1-1v-2a1,1,0,0,1,1-1,1,1,0,0,1,1,1v2A1,1,0,0,1,1899-1483.5Zm0-7a1,1,0,0,1-1-1v-2a1,1,0,0,1,1-1,1,1,0,0,1,1,1v2A1,1,0,0,1,1899-1490.5Z" fill="#f36628"/>
    <path id="Path_1113" data-name="Path 1113" d="M2012-1506.032a1,1,0,0,1-1-1v-2a1,1,0,0,1,1-1,1,1,0,0,1,1,1v2A1,1,0,0,1,2012-1506.032Zm0-7a1,1,0,0,1-1-1v-2a1,1,0,0,1,1-1,1,1,0,0,1,1,1v2A1,1,0,0,1,2012-1513.032Zm0-7a1,1,0,0,1-1-1v-2a1,1,0,0,1,1-1,1,1,0,0,1,1,1v2A1,1,0,0,1,2012-1520.032Z" fill="#f36628"/>
    <path id="Path_1114" data-name="Path 1114" d="M1963-1433.5a1,1,0,0,1-1-1v-46h-30v46a1,1,0,0,1-1,1,1,1,0,0,1-1-1v-47a1,1,0,0,1,1-1h32a1,1,0,0,1,1,1v47A1,1,0,0,1,1963-1433.5Z" fill="#f36628"/>
  </g>
</svg>
