<svg xmlns="http://www.w3.org/2000/svg" width="15.995" height="15.996" viewBox="0 0 15.995 15.996">
  <g id="그룹_1013" data-name="그룹 1013" transform="translate(-551.109 -359.86)">
    <g id="그룹_1015" data-name="그룹 1015" transform="translate(551.109 359.86)">
      <g id="그룹_1013-2" data-name="그룹 1013">
        <path id="패스_517" data-name="패스 517" d="M587.107,367.259a5.6,5.6,0,1,1-5.6,5.6,5.6,5.6,0,0,1,5.6-5.6m0-2.4a8,8,0,1,0,8,8,8,8,0,0,0-8-8Z" transform="translate(-579.109 -364.86)" fill="#f36628"/>
      </g>
      <g id="그룹_1014" data-name="그룹 1014" transform="translate(4.049 2.662)">
        <path id="패스_519" data-name="패스 519" d="M587.652,376.651a1.2,1.2,0,0,1-.929-.44l-2.28-2.788a1.2,1.2,0,1,1,1.857-1.52l1.344,1.643,3.94-4.909a1.2,1.2,0,0,1,1.871,1.5l-4.867,6.062a1.2,1.2,0,0,1-.93.449Z" transform="translate(-584.172 -368.189)" fill="#f36628"/>
      </g>
    </g>
  </g>
</svg>
